HIERARCHY
ROOT Hips
{
  OFFSET 0.000000 95.000000 0.000000
  CHANNELS 6 Xposition Yposition Zposition Zrotation Xrotation Yrotation
  JOINT Spine
  {
    OFFSET 0.000000 10.000000 0.000000
    CHANNELS 3 Zrotation Xrotation Yrotation
    JOINT Spine1
    {
      OFFSET 0.000000 12.000000 0.000000
      CHANNELS 3 Zrotation Xrotation Yrotation
      JOINT Spine2
      {
        OFFSET 0.000000 12.000000 0.000000
        CHANNELS 3 Zrotation Xrotation Yrotation
        JOINT Neck
        {
          OFFSET 0.000000 10.000000 0.000000
          CHANNELS 3 Zrotation Xrotation Yrotation
          JOINT Head
          {
            OFFSET 0.000000 8.000000 0.000000
            CHANNELS 3 Zrotation Xrotation Yrotation
            End Site
            {
              OFFSET 0.000000 10.000000 0.000000
            }
          }
        }
        JOINT LeftShoulder
        {
          OFFSET 6.000000 8.000000 0.000000
          CHANNELS 3 Zrotation Xrotation Yrotation
          JOINT LeftArm
          {
            OFFSET 12.000000 0.000000 0.000000
            CHANNELS 3 Zrotation Xrotation Yrotation
            JOINT LeftForeArm
            {
              OFFSET 24.000000 0.000000 0.000000
              CHANNELS 3 Zrotation Xrotation Yrotation
              JOINT LeftHand
              {
                OFFSET 22.000000 0.000000 0.000000
                CHANNELS 3 Zrotation Xrotation Yrotation
                JOINT LeftHandThumb1
                {
                  OFFSET 1.800000 -1.400000 0.500000
                  CHANNELS 3 Zrotation Xrotation Yrotation
                  JOINT LeftHandThumb2
                  {
                    OFFSET 2.400000 0.000000 0.000000
                    CHANNELS 3 Zrotation Xrotation Yrotation
                    JOINT LeftHandThumb3
                    {
                      OFFSET 1.900000 0.000000 0.000000
                      CHANNELS 3 Zrotation Xrotation Yrotation
                      End Site
                      {
                        OFFSET 1.600000 0.000000 0.000000
                      }
                    }
                  }
                }
                JOINT LeftHandIndex1
                {
                  OFFSET 6.600000 1.200000 0.300000
                  CHANNELS 3 Zrotation Xrotation Yrotation
                  JOINT LeftHandIndex2
                  {
                    OFFSET 2.000000 0.000000 0.000000
                    CHANNELS 3 Zrotation Xrotation Yrotation
                    JOINT LeftHandIndex3
                    {
                      OFFSET 1.200000 0.000000 0.000000
                      CHANNELS 3 Zrotation Xrotation Yrotation
                      End Site
                      {
                        OFFSET 1.000000 0.000000 0.000000
                      }
                    }
                  }
                }
                JOINT LeftHandMiddle1
                {
                  OFFSET 7.200000 0.000000 0.300000
                  CHANNELS 3 Zrotation Xrotation Yrotation
                  JOINT LeftHandMiddle2
                  {
                    OFFSET 3.000000 0.000000 0.000000
                    CHANNELS 3 Zrotation Xrotation Yrotation
                    JOINT LeftHandMiddle3
                    {
                      OFFSET 2.000000 0.000000 0.000000
                      CHANNELS 3 Zrotation Xrotation Yrotation
                      End Site
                      {
                        OFFSET 1.600000 0.000000 0.000000
                      }
                    }
                  }
                }
                JOINT LeftHandRing1
                {
                  OFFSET 7.100000 -1.000000 0.400000
                  CHANNELS 3 Zrotation Xrotation Yrotation
                  JOINT LeftHandRing2
                  {
                    OFFSET 2.600000 0.000000 0.000000
                    CHANNELS 3 Zrotation Xrotation Yrotation
                    JOINT LeftHandRing3
                    {
                      OFFSET 1.600000 0.000000 0.000000
                      CHANNELS 3 Zrotation Xrotation Yrotation
                      End Site
                      {
                        OFFSET 1.300000 0.000000 0.000000
                      }
                    }
                  }
                }
                JOINT LeftHandPinky1
                {
                  OFFSET 6.500000 -2.000000 0.500000
                  CHANNELS 3 Zrotation Xrotation Yrotation
                  JOINT LeftHandPinky2
                  {
                    OFFSET 1.900000 0.000000 0.000000
                    CHANNELS 3 Zrotation Xrotation Yrotation
                    JOINT LeftHandPinky3
                    {
                      OFFSET 1.400000 0.000000 0.000000
                      CHANNELS 3 Zrotation Xrotation Yrotation
                      End Site
                      {
                        OFFSET 1.300000 0.000000 0.000000
                      }
                    }
                  }
                }
              }
            }
          }
        }
        JOINT RightShoulder
        {
          OFFSET -6.000000 8.000000 0.000000
          CHANNELS 3 Zrotation Xrotation Yrotation
          JOINT RightArm
          {
            OFFSET -12.000000 0.000000 0.000000
            CHANNELS 3 Zrotation Xrotation Yrotation
            JOINT RightForeArm
            {
              OFFSET -24.000000 0.000000 0.000000
              CHANNELS 3 Zrotation Xrotation Yrotation
              JOINT RightHand
              {
                OFFSET -22.000000 0.000000 0.000000
                CHANNELS 3 Zrotation Xrotation Yrotation
                JOINT RightHandThumb1
                {
                  OFFSET -1.800000 -1.400000 0.500000
                  CHANNELS 3 Zrotation Xrotation Yrotation
                  JOINT RightHandThumb2
                  {
                    OFFSET -2.400000 0.000000 0.000000
                    CHANNELS 3 Zrotation Xrotation Yrotation
                    JOINT RightHandThumb3
                    {
                      OFFSET -1.900000 0.000000 0.000000
                      CHANNELS 3 Zrotation Xrotation Yrotation
                      End Site
                      {
                        OFFSET -1.600000 0.000000 0.000000
                      }
                    }
                  }
                }
                JOINT RightHandIndex1
                {
                  OFFSET -6.600000 1.200000 0.300000
                  CHANNELS 3 Zrotation Xrotation Yrotation
                  JOINT RightHandIndex2
                  {
                    OFFSET -2.000000 0.000000 0.000000
                    CHANNELS 3 Zrotation Xrotation Yrotation
                    JOINT RightHandIndex3
                    {
                      OFFSET -1.200000 0.000000 0.000000
                      CHANNELS 3 Zrotation Xrotation Yrotation
                      End Site
                      {
                        OFFSET -1.000000 0.000000 0.000000
                      }
                    }
                  }
                }
                JOINT RightHandMiddle1
                {
                  OFFSET -7.200000 0.000000 0.300000
                  CHANNELS 3 Zrotation Xrotation Yrotation
                  JOINT RightHandMiddle2
                  {
                    OFFSET -3.000000 0.000000 0.000000
                    CHANNELS 3 Zrotation Xrotation Yrotation
                    JOINT RightHandMiddle3
                    {
                      OFFSET -2.000000 0.000000 0.000000
                      CHANNELS 3 Zrotation Xrotation Yrotation
                      End Site
                      {
                        OFFSET -1.600000 0.000000 0.000000
                      }
                    }
                  }
                }
                JOINT RightHandRing1
                {
                  OFFSET -7.100000 -1.000000 0.400000
                  CHANNELS 3 Zrotation Xrotation Yrotation
                  JOINT RightHandRing2
                  {
                    OFFSET -2.600000 0.000000 0.000000
                    CHANNELS 3 Zrotation Xrotation Yrotation
                    JOINT RightHandRing3
                    {
                      OFFSET -1.600000 0.000000 0.000000
                      CHANNELS 3 Zrotation Xrotation Yrotation
                      End Site
                      {
                        OFFSET -1.300000 0.000000 0.000000
                      }
                    }
                  }
                }
                JOINT RightHandPinky1
                {
                  OFFSET -6.500000 -2.000000 0.500000
                  CHANNELS 3 Zrotation Xrotation Yrotation
                  JOINT RightHandPinky2
                  {
                    OFFSET -1.900000 0.000000 0.000000
                    CHANNELS 3 Zrotation Xrotation Yrotation
                    JOINT RightHandPinky3
                    {
                      OFFSET -1.400000 0.000000 0.000000
                      CHANNELS 3 Zrotation Xrotation Yrotation
                      End Site
                      {
                        OFFSET -1.300000 0.000000 0.000000
                      }
                    }
                  }
                }
              }
            }
          }
        }
      }
    }
  }
  JOINT LeftUpLeg
  {
    OFFSET 10.000000 -5.000000 0.000000
    CHANNELS 3 Zrotation Xrotation Yrotation
    JOINT LeftLeg
    {
      OFFSET 0.000000 -42.000000 0.000000
      CHANNELS 3 Zrotation Xrotation Yrotation
      JOINT LeftFoot
      {
        OFFSET 0.000000 -42.000000 4.000000
        CHANNELS 3 Zrotation Xrotation Yrotation
        End Site
        {
          OFFSET 0.000000 0.000000 12.000000
        }
      }
    }
  }
  JOINT RightUpLeg
  {
    OFFSET -10.000000 -5.000000 0.000000
    CHANNELS 3 Zrotation Xrotation Yrotation
    JOINT RightLeg
    {
      OFFSET 0.000000 -42.000000 0.000000
      CHANNELS 3 Zrotation Xrotation Yrotation
      JOINT RightFoot
      {
        OFFSET 0.000000 -42.000000 4.000000
        CHANNELS 3 Zrotation Xrotation Yrotation
        End Site
        {
          OFFSET 0.000000 0.000000 12.000000
        }
      }
    }
  }
}
MOTION
Frames: 7
Frame Time: 0.033333
0.0000 95.0000 0.0000 0.0000 0.0000 0.0000 0.0000 0.0000 0.0000 0.0000 0.0000 0.0000 0.0000 0.0000 0.0000 0.0000 0.0000 0.0000 0.0000 0.0000 0.0000 0.0000 0.0000 0.0000 -75.0749 4.6424 6.0396 -3.9314 9.1034 -12.3144 68.3308 6.0405 193.1872 50.9279 -8.9363 10.2880 27.1696 0.0000 0.0000 4.9253 0.0000 0.0000 -26.7597 1.6833 9.1013 22.2782 0.0000 0.0000 43.8252 0.0000 0.0000 -37.1278 2.1687 1.6798 53.3969 0.0000 0.0000 90.0000 0.0000 0.0000 -30.7113 3.2963 3.3482 110.0000 0.0000 0.0000 58.3882 0.0000 0.0000 -23.6787 3.8011 3.2872 110.0000 0.0000 0.0000 27.2743 0.0000 0.0000 0.0000 0.0000 0.0000 50.2060 -15.3673 32.1299 7.3341 70.2581 93.5820 43.0458 25.6117 54.8634 -65.0065 -14.0077 7.2512 24.1023 0.0000 0.0000 50.6501 0.0000 0.0000 19.7837 0.9697 13.0110 12.9833 0.0000 0.0000 17.3927 0.0000 0.0000 8.0850 -0.7986 16.0360 6.6745 0.0000 0.0000 20.0647 0.0000 0.0000 -0.5448 -1.3371 9.6302 19.3524 0.0000 0.0000 13.7948 0.0000 0.0000 -7.9518 -2.4230 7.8608 22.5752 0.0000 0.0000 3.3315 0.0000 0.0000 0.0000 0.0000 0.0000 0.0000 0.0000 0.0000 0.0000 0.0000 0.0000 0.0000 0.0000 0.0000 0.0000 0.0000 0.0000 0.0000 0.0000 0.0000
0.0000 95.0000 0.0000 0.0000 0.0000 0.0000 0.0000 0.0000 0.0000 0.0000 0.0000 0.0000 0.0000 0.0000 0.0000 0.0000 0.0000 0.0000 0.0000 0.0000 0.0000 0.0000 0.0000 0.0000 -75.1821 4.6419 6.0274 -4.0665 9.1018 -12.3038 68.0920 6.0837 193.1727 50.9279 -8.9363 10.2880 27.1696 0.0000 0.0000 4.9253 0.0000 0.0000 -26.7597 1.6833 9.1013 22.2782 0.0000 0.0000 43.8252 0.0000 0.0000 -37.1278 2.1687 1.6798 53.3969 0.0000 0.0000 90.0000 0.0000 0.0000 -30.7113 3.2963 3.3482 110.0000 0.0000 0.0000 58.3882 0.0000 0.0000 -23.6787 3.8011 3.2872 110.0000 0.0000 0.0000 27.2743 0.0000 0.0000 0.0000 0.0000 0.0000 50.7010 -15.2251 31.5073 8.6836 68.3819 93.9731 42.3029 28.2606 59.7884 -61.7129 -13.4137 4.8701 21.7220 0.0000 0.0000 51.9303 0.0000 0.0000 20.5307 0.9178 13.5303 19.1740 0.0000 0.0000 23.7125 0.0000 0.0000 8.0002 -0.8718 17.1903 20.2158 0.0000 0.0000 28.4200 0.0000 0.0000 2.1116 -1.7341 11.6292 29.7359 0.0000 0.0000 21.5940 0.0000 0.0000 3.1276 -4.7747 14.9188 28.5041 0.0000 0.0000 12.7027 0.0000 0.0000 0.0000 0.0000 0.0000 0.0000 0.0000 0.0000 0.0000 0.0000 0.0000 0.0000 0.0000 0.0000 0.0000 0.0000 0.0000 0.0000 0.0000 0.0000
0.0000 95.0000 0.0000 0.0000 0.0000 0.0000 0.0000 0.0000 0.0000 0.0000 0.0000 0.0000 0.0000 0.0000 0.0000 0.0000 0.0000 0.0000 0.0000 0.0000 0.0000 0.0000 0.0000 0.0000 -75.3134 4.6546 6.0296 -4.4257 9.1263 -12.3493 67.6211 6.1947 193.1750 50.9279 -8.9363 10.2880 27.1696 0.0000 0.0000 4.9253 0.0000 0.0000 -26.7597 1.6833 9.1013 22.2782 0.0000 0.0000 43.8252 0.0000 0.0000 -37.1278 2.1687 1.6798 53.3969 0.0000 0.0000 90.0000 0.0000 0.0000 -30.7113 3.2963 3.3482 110.0000 0.0000 0.0000 58.3882 0.0000 0.0000 -23.6787 3.8011 3.2872 110.0000 0.0000 0.0000 27.2743 0.0000 0.0000 0.0000 0.0000 0.0000 51.0004 -15.3285 31.5106 9.7084 67.7603 94.4735 41.0772 29.9565 61.3418 -61.2386 -13.0681 2.1259 24.5965 0.0000 0.0000 46.9309 0.0000 0.0000 21.6187 0.8668 10.2959 20.1006 0.0000 0.0000 17.0817 0.0000 0.0000 8.7072 -0.7759 14.9372 15.6199 0.0000 0.0000 24.0370 0.0000 0.0000 5.7153 -1.8176 11.1684 30.4705 0.0000 0.0000 18.9624 0.0000 0.0000 11.0828 -5.1000 14.3928 26.4796 0.0000 0.0000 14.3080 0.0000 0.0000 0.0000 0.0000 0.0000 0.0000 0.0000 0.0000 0.0000 0.0000 0.0000 0.0000 0.0000 0.0000 0.0000 0.0000 0.0000 0.0000 0.0000 0.0000
0.0000 95.0000 0.0000 0.0000 0.0000 0.0000 0.0000 0.0000 0.0000 0.0000 0.0000 0.0000 0.0000 0.0000 0.0000 0.0000 0.0000 0.0000 0.0000 0.0000 0.0000 0.0000 0.0000 0.0000 -75.3407 4.6658 6.0410 -4.6221 9.1420 -12.3871 67.4084 6.2481 193.1796 50.9279 -8.9363 10.2880 27.1696 0.0000 0.0000 4.9253 0.0000 0.0000 -26.7597 1.6833 9.1013 22.2782 0.0000 0.0000 43.8252 0.0000 0.0000 -37.1278 2.1687 1.6798 53.3969 0.0000 0.0000 90.0000 0.0000 0.0000 -30.7113 3.2963 3.3482 110.0000 0.0000 0.0000 58.3882 0.0000 0.0000 -23.6787 3.8011 3.2872 110.0000 0.0000 0.0000 27.2743 0.0000 0.0000 0.0000 0.0000 0.0000 51.2778 -15.3642 31.3952 10.1219 67.1210 94.3451 42.5169 29.3278 59.4154 -61.0470 -13.1730 3.4029 23.7517 0.0000 0.0000 52.0377 0.0000 0.0000 23.8338 0.7338 11.3908 13.9145 0.0000 0.0000 15.8579 0.0000 0.0000 12.4030 -1.2075 15.8501 11.0132 0.0000 0.0000 23.6422 0.0000 0.0000 4.5905 -1.8405 11.5647 25.7450 0.0000 0.0000 21.2408 0.0000 0.0000 3.0273 -4.3834 13.7715 30.9270 0.0000 0.0000 11.9861 0.0000 0.0000 0.0000 0.0000 0.0000 0.0000 0.0000 0.0000 0.0000 0.0000 0.0000 0.0000 0.0000 0.0000 0.0000 0.0000 0.0000 0.0000 0.0000 0.0000
0.0000 95.0000 0.0000 0.0000 0.0000 0.0000 0.0000 0.0000 0.0000 0.0000 0.0000 0.0000 0.0000 0.0000 0.0000 0.0000 0.0000 0.0000 0.0000 0.0000 0.0000 0.0000 0.0000 0.0000 -75.4237 4.6682 6.0351 -4.6440 9.1471 -12.3779 67.3048 6.2659 193.1720 50.9279 -8.9363 10.2880 27.1696 0.0000 0.0000 4.9253 0.0000 0.0000 -26.7597 1.6833 9.1013 22.2782 0.0000 0.0000 43.8252 0.0000 0.0000 -37.1278 2.1687 1.6798 53.3969 0.0000 0.0000 90.0000 0.0000 0.0000 -30.7113 3.2963 3.3482 110.0000 0.0000 0.0000 58.3882 0.0000 0.0000 -23.6787 3.8011 3.2872 110.0000 0.0000 0.0000 27.2743 0.0000 0.0000 0.0000 0.0000 0.0000 51.1402 -15.2921 31.3450 10.0822 66.6867 94.2096 46.2350 29.5987 62.0614 -61.8958 -13.2806 3.2589 24.0379 0.0000 0.0000 52.1148 0.0000 0.0000 22.2714 0.8024 12.6048 21.9683 0.0000 0.0000 17.9645 0.0000 0.0000 11.2442 -1.2011 16.9282 20.4489 0.0000 0.0000 24.5633 0.0000 0.0000 5.5243 -1.8699 11.4874 28.4571 0.0000 0.0000 22.2991 0.0000 0.0000 6.7440 -4.9362 14.6977 31.4338 0.0000 0.0000 15.4882 0.0000 0.0000 0.0000 0.0000 0.0000 0.0000 0.0000 0.0000 0.0000 0.0000 0.0000 0.0000 0.0000 0.0000 0.0000 0.0000 0.0000 0.0000 0.0000 0.0000
0.0000 95.0000 0.0000 0.0000 0.0000 0.0000 0.0000 0.0000 0.0000 0.0000 0.0000 0.0000 0.0000 0.0000 0.0000 0.0000 0.0000 0.0000 0.0000 0.0000 0.0000 0.0000 0.0000 0.0000 -75.7585 4.6809 6.0151 -4.4249 9.1938 -12.3415 67.1927 6.2900 193.1694 50.9279 -8.9363 10.2880 27.1696 0.0000 0.0000 4.9253 0.0000 0.0000 -26.7597 1.6833 9.1013 22.2782 0.0000 0.0000 43.8252 0.0000 0.0000 -37.1278 2.1687 1.6798 53.3969 0.0000 0.0000 90.0000 0.0000 0.0000 -30.7113 3.2963 3.3482 110.0000 0.0000 0.0000 58.3882 0.0000 0.0000 -23.6787 3.8011 3.2872 110.0000 0.0000 0.0000 27.2743 0.0000 0.0000 0.0000 0.0000 0.0000 51.1063 -15.3243 31.4312 9.4546 66.0386 92.9618 45.6909 31.1276 62.3513 -61.2256 -13.2568 3.9656 25.9618 0.0000 0.0000 50.8056 0.0000 0.0000 23.0585 0.7321 13.4400 21.9657 0.0000 0.0000 19.8829 0.0000 0.0000 11.6046 -1.2971 17.4845 22.7506 0.0000 0.0000 28.3252 0.0000 0.0000 6.9654 -2.2044 12.8001 34.6989 0.0000 0.0000 24.0663 0.0000 0.0000 7.5843 -5.1772 15.1856 29.4471 0.0000 0.0000 20.1160 0.0000 0.0000 0.0000 0.0000 0.0000 0.0000 0.0000 0.0000 0.0000 0.0000 0.0000 0.0000 0.0000 0.0000 0.0000 0.0000 0.0000 0.0000 0.0000 0.0000
0.0000 95.0000 0.0000 0.0000 0.0000 0.0000 0.0000 0.0000 0.0000 0.0000 0.0000 0.0000 0.0000 0.0000 0.0000 0.0000 0.0000 0.0000 0.0000 0.0000 0.0000 0.0000 0.0000 0.0000 -75.9932 4.7043 6.0198 -4.2623 9.2463 -12.3410 67.1269 6.3098 193.1747 50.9279 -8.9363 10.2880 27.1696 0.0000 0.0000 4.9253 0.0000 0.0000 -26.7597 1.6833 9.1013 22.2782 0.0000 0.0000 43.8252 0.0000 0.0000 -37.1278 2.1687 1.6798 53.3969 0.0000 0.0000 90.0000 0.0000 0.0000 -30.7113 3.2963 3.3482 110.0000 0.0000 0.0000 58.3882 0.0000 0.0000 -23.6787 3.8011 3.2872 110.0000 0.0000 0.0000 27.2743 0.0000 0.0000 0.0000 0.0000 0.0000 50.9215 -15.4484 31.8011 8.3323 66.4084 91.7182 48.0754 33.5892 62.0690 -64.2889 -13.7339 4.6778 25.4378 0.0000 0.0000 49.0243 0.0000 0.0000 20.6748 0.9085 12.0906 22.7183 0.0000 0.0000 22.6387 0.0000 0.0000 9.2919 -1.0161 17.2264 24.3255 0.0000 0.0000 25.8753 0.0000 0.0000 4.1578 -1.8386 11.6690 35.3995 0.0000 0.0000 22.4174 0.0000 0.0000 4.6330 -4.9908 15.2472 33.8759 0.0000 0.0000 13.8560 0.0000 0.0000 0.0000 0.0000 0.0000 0.0000 0.0000 0.0000 0.0000 0.0000 0.0000 0.0000 0.0000 0.0000 0.0000 0.0000 0.0000 0.0000 0.0000 0.0000
